<?xml version="1.0" encoding="UTF-8" ?>
<!DOCTYPE svg PUBLIC "-//W3C//DTD SVG 1.1//EN" "http://www.w3.org/Graphics/SVG/1.1/DTD/svg11.dtd">
<svg width="332pt" height="332pt" viewBox="0 0 332 332" version="1.1" xmlns="http://www.w3.org/2000/svg">
<path fill="#ffffff" d=" M 0.00 0.00 L 159.65 0.00 C 125.16 1.53 91.13 13.65 63.99 35.08 C 37.89 55.33 18.07 83.57 8.00 115.04 C 3.39 128.79 1.23 143.18 0.00 157.59 L 0.00 0.00 Z" />
<path fill="#78c1ff" d=" M 159.65 0.00 L 169.59 0.00 C 204.79 0.77 239.67 12.96 267.45 34.64 C 292.56 53.98 311.98 80.66 322.49 110.58 C 328.18 126.33 331.07 142.96 332.00 159.65 L 332.00 174.39 C 330.58 193.75 326.54 212.99 318.84 230.86 C 304.88 263.88 279.87 292.03 248.80 309.89 C 225.62 323.37 199.12 330.74 172.38 332.00 L 159.46 332.00 C 135.97 330.82 112.67 325.07 91.65 314.45 C 62.33 299.76 37.54 276.20 21.45 247.62 C 8.57 225.20 1.63 199.69 0.00 173.95 L 0.00 157.59 C 1.23 143.18 3.39 128.79 8.00 115.04 C 18.07 83.57 37.89 55.33 63.99 35.08 C 91.13 13.65 125.16 1.53 159.65 0.00 Z" />
<path fill="#ffffff" d=" M 169.59 0.00 L 332.00 0.00 L 332.00 159.65 C 331.07 142.96 328.18 126.33 322.49 110.58 C 311.98 80.66 292.56 53.98 267.45 34.64 C 239.67 12.96 204.79 0.77 169.59 0.00 Z" />
<path fill="#ffffff" d=" M 170.07 32.49 C 170.92 32.50 172.62 32.51 173.48 32.51 C 173.71 37.42 173.10 42.38 173.74 47.25 C 176.42 52.05 179.81 56.42 182.65 61.13 C 181.39 63.66 178.77 65.96 179.33 69.02 C 180.45 81.36 181.75 93.68 182.76 106.02 C 182.04 113.48 178.66 120.52 178.07 128.00 C 179.73 144.31 181.25 160.64 183.11 176.92 C 197.44 177.13 211.77 176.91 226.09 177.02 C 228.06 176.75 228.90 178.81 230.08 179.96 C 228.44 198.96 226.87 217.97 225.27 236.98 C 224.58 239.48 226.87 241.07 228.23 242.78 C 231.46 246.23 234.31 250.04 237.74 253.30 C 240.71 253.22 243.69 253.22 246.66 253.26 C 247.02 254.09 247.37 254.92 247.74 255.75 C 236.78 255.78 225.83 255.74 214.88 255.77 C 211.87 251.26 217.67 247.61 217.17 243.06 C 216.28 233.85 215.36 224.65 214.39 215.46 C 213.34 207.92 216.25 200.52 215.79 192.99 C 205.59 196.29 195.92 201.06 185.90 204.85 C 179.87 206.31 177.85 212.79 174.10 217.00 C 165.68 217.17 157.28 216.73 148.86 216.74 C 142.21 225.42 135.27 233.92 129.10 242.96 C 131.95 244.16 135.09 244.11 138.12 244.49 C 161.01 246.97 183.91 249.33 206.80 251.87 C 206.76 253.13 206.72 254.40 206.65 255.66 C 169.78 255.98 132.89 255.54 96.03 255.88 C 91.98 257.67 88.66 260.76 84.65 262.63 C 78.57 262.86 72.43 262.89 66.35 262.60 C 61.58 259.25 57.24 255.30 52.57 251.79 C 52.45 246.94 52.51 242.08 52.51 237.23 C 55.79 234.32 58.84 231.11 62.29 228.40 C 71.32 226.62 80.52 225.95 89.71 225.52 C 89.56 228.40 89.10 231.34 89.74 234.20 C 92.58 234.32 95.41 234.46 98.25 234.51 C 98.93 230.48 98.30 226.30 99.14 222.34 C 113.90 210.96 129.08 200.11 143.93 188.83 C 147.42 185.53 152.57 187.38 156.83 186.21 C 158.84 167.43 161.09 148.67 163.16 129.90 C 163.49 126.67 164.26 123.52 165.05 120.38 C 165.57 119.98 166.62 119.17 167.15 118.77 C 168.57 102.82 169.75 86.86 171.14 70.91 C 171.93 64.72 168.28 59.08 168.22 52.98 C 168.76 46.14 169.41 39.32 170.07 32.49 Z" />
<path fill="#ffffff" d=" M 0.00 173.95 C 1.63 199.69 8.57 225.20 21.45 247.62 C 37.54 276.20 62.33 299.76 91.65 314.45 C 112.67 325.07 135.97 330.82 159.46 332.00 L 0.00 332.00 L 0.00 173.95 Z" />
<path fill="#ffffff" d=" M 318.84 230.86 C 326.54 212.99 330.58 193.75 332.00 174.39 L 332.00 332.00 L 172.38 332.00 C 199.12 330.74 225.62 323.37 248.80 309.89 C 279.87 292.03 304.88 263.88 318.84 230.86 Z" />
</svg>
