<?xml version="1.0" encoding="UTF-8" ?>
<!DOCTYPE svg PUBLIC "-//W3C//DTD SVG 1.1//EN" "http://www.w3.org/Graphics/SVG/1.1/DTD/svg11.dtd">
<svg width="201pt" height="237pt" viewBox="0 0 201 237" version="1.1" xmlns="http://www.w3.org/2000/svg">
<path fill="#ffffff" d=" M 0.00 0.00 L 201.00 0.00 L 201.00 237.00 L 0.00 237.00 L 0.00 223.98 C 3.71 226.91 7.39 229.88 11.03 232.91 C 13.03 234.49 15.17 236.33 17.89 236.23 C 22.97 236.38 28.06 236.40 33.14 236.22 C 38.62 236.05 42.07 230.88 47.13 229.52 C 52.04 228.82 57.02 229.37 61.96 229.26 C 94.26 229.18 126.57 229.39 158.87 229.16 C 159.10 226.33 159.33 223.50 159.56 220.68 C 134.12 217.72 108.63 215.18 83.17 212.41 C 88.80 204.99 94.43 197.57 100.12 190.19 C 108.30 190.28 116.52 190.97 124.69 190.45 C 127.71 188.68 129.06 184.99 131.32 182.39 C 133.01 179.85 135.82 178.53 138.56 177.46 C 146.86 174.25 155.03 170.72 163.29 167.43 C 162.56 173.91 161.17 180.42 161.87 186.98 C 162.69 195.39 163.68 203.80 164.46 212.22 C 165.00 216.20 162.34 219.50 161.38 223.18 C 161.40 225.27 162.37 227.22 162.93 229.22 C 175.61 228.99 188.34 229.89 200.98 228.72 C 200.14 226.39 199.30 224.08 198.49 221.74 C 195.20 221.74 191.92 221.75 188.64 221.74 C 185.00 217.55 181.34 213.39 177.72 209.18 C 179.37 189.46 181.11 169.75 182.64 150.03 C 181.34 148.54 180.05 147.04 178.76 145.55 C 164.29 145.43 149.82 145.52 135.35 145.50 C 134.07 133.43 132.92 121.35 131.63 109.29 C 131.16 104.67 130.26 99.97 131.18 95.35 C 132.46 88.25 135.83 81.41 135.13 74.05 C 134.14 63.37 133.02 52.70 132.07 42.03 C 131.44 38.24 133.75 35.03 135.55 31.96 C 132.76 27.05 128.99 22.73 126.52 17.65 C 125.37 12.23 126.23 6.61 125.91 1.11 C 123.20 1.05 120.49 1.01 117.78 0.96 C 117.09 8.00 116.33 15.03 115.79 22.07 C 115.08 29.18 119.40 35.68 118.53 42.80 C 117.10 57.75 116.33 72.76 114.59 87.68 C 111.67 91.82 111.00 96.95 110.49 101.87 C 108.51 119.56 106.49 137.25 104.48 154.94 C 100.44 155.19 95.92 154.80 92.62 157.62 C 77.27 169.25 61.65 180.54 46.32 192.21 C 46.22 195.82 46.11 199.42 45.98 203.03 C 44.65 202.91 43.33 202.79 42.00 202.67 C 42.06 199.75 42.14 196.84 42.22 193.94 C 33.20 194.20 24.18 194.81 15.26 196.20 C 8.59 196.97 4.67 203.13 0.00 207.24 L 0.00 0.00 Z" />
<path fill="#7ac2ff" d=" M 117.78 0.96 C 120.49 1.01 123.20 1.05 125.91 1.11 C 126.23 6.61 125.37 12.23 126.52 17.65 C 128.99 22.73 132.76 27.05 135.55 31.96 C 133.75 35.03 131.44 38.24 132.07 42.03 C 133.02 52.70 134.14 63.37 135.13 74.05 C 135.83 81.41 132.46 88.25 131.18 95.35 C 130.26 99.97 131.16 104.67 131.63 109.29 C 132.92 121.35 134.07 133.43 135.35 145.50 C 149.82 145.52 164.29 145.43 178.76 145.55 C 180.05 147.04 181.34 148.54 182.64 150.03 C 181.11 169.75 179.37 189.46 177.72 209.18 C 181.34 213.39 185.00 217.55 188.64 221.74 C 191.92 221.75 195.20 221.74 198.49 221.74 C 199.30 224.08 200.14 226.39 200.98 228.72 C 188.34 229.89 175.61 228.99 162.93 229.22 C 162.37 227.22 161.40 225.27 161.38 223.18 C 162.34 219.50 165.00 216.20 164.46 212.22 C 163.68 203.80 162.69 195.39 161.87 186.98 C 161.17 180.42 162.56 173.91 163.29 167.43 C 155.03 170.72 146.86 174.25 138.56 177.46 C 135.82 178.53 133.01 179.85 131.32 182.39 C 129.06 184.99 127.71 188.68 124.69 190.45 C 116.52 190.97 108.30 190.28 100.12 190.19 C 94.43 197.57 88.80 204.99 83.17 212.41 C 108.63 215.18 134.12 217.72 159.56 220.68 C 159.33 223.50 159.10 226.33 158.87 229.16 C 126.57 229.39 94.26 229.18 61.96 229.26 C 57.02 229.37 52.04 228.82 47.13 229.52 C 42.07 230.88 38.62 236.05 33.14 236.22 C 28.06 236.40 22.97 236.38 17.89 236.23 C 15.17 236.33 13.03 234.49 11.03 232.91 C 7.39 229.88 3.71 226.91 0.00 223.98 L 0.00 207.24 C 4.67 203.13 8.59 196.97 15.26 196.20 C 24.18 194.81 33.20 194.20 42.22 193.94 C 42.14 196.84 42.06 199.75 42.00 202.67 C 43.33 202.79 44.65 202.91 45.98 203.03 C 46.11 199.42 46.22 195.82 46.32 192.21 C 61.65 180.54 77.27 169.25 92.62 157.62 C 95.92 154.80 100.44 155.19 104.48 154.94 C 106.49 137.25 108.51 119.56 110.49 101.87 C 111.00 96.95 111.67 91.82 114.59 87.68 C 116.33 72.76 117.10 57.75 118.53 42.80 C 119.40 35.68 115.08 29.18 115.79 22.07 C 116.33 15.03 117.09 8.00 117.78 0.96 Z" />
<path fill="#ffffff" d=" M 120.07 3.49 C 120.93 3.50 122.63 3.51 123.48 3.51 C 123.64 8.33 123.07 13.20 123.77 17.98 C 126.10 23.04 129.83 27.30 132.62 32.10 C 130.99 34.83 128.68 37.63 129.40 41.05 C 130.45 51.74 131.39 62.44 132.49 73.12 C 133.91 83.39 126.71 92.73 128.39 103.02 C 130.09 117.98 131.36 132.99 133.08 147.95 C 147.08 148.10 161.08 147.92 175.07 148.01 C 177.33 147.65 178.76 149.43 180.17 150.85 C 178.36 168.91 177.16 187.03 175.45 205.11 C 175.44 207.25 174.64 209.82 176.33 211.56 C 179.90 215.86 183.75 219.93 187.37 224.19 C 190.47 224.23 193.57 224.25 196.67 224.28 C 197.02 225.10 197.37 225.92 197.72 226.75 C 186.78 226.76 175.85 226.75 164.91 226.76 C 164.51 225.60 164.11 224.45 163.72 223.30 C 165.26 220.06 167.60 216.80 167.10 213.02 C 166.23 204.16 165.32 195.30 164.38 186.44 C 163.54 178.84 166.04 171.41 165.90 163.83 C 155.45 167.51 145.39 172.20 135.04 176.16 C 129.64 178.06 127.59 183.94 124.12 187.99 C 115.67 188.14 107.23 187.75 98.78 187.72 C 92.26 196.27 85.66 204.76 79.25 213.41 C 79.48 213.71 79.94 214.32 80.17 214.62 C 105.70 217.43 131.26 220.06 156.79 222.87 C 156.74 224.14 156.69 225.42 156.64 226.70 C 120.76 226.81 84.88 226.75 49.00 226.72 C 42.04 226.33 38.08 234.59 31.01 233.80 C 26.15 233.61 21.23 234.16 16.41 233.47 C 11.43 230.42 7.29 226.18 2.55 222.78 C 2.50 217.93 2.49 213.08 2.52 208.23 C 5.85 205.41 8.68 201.95 12.34 199.55 C 21.24 197.41 30.46 197.08 39.57 196.54 C 39.60 199.43 39.43 202.33 39.53 205.22 C 42.47 205.31 45.41 205.44 48.35 205.54 C 48.62 201.68 48.51 197.78 49.02 193.95 C 50.36 191.73 52.88 190.51 54.86 188.91 C 67.91 179.25 80.97 169.60 93.93 159.82 C 97.54 156.90 102.51 157.93 106.80 157.35 C 108.83 138.88 111.00 120.43 113.04 101.96 C 113.42 98.40 114.18 94.91 114.99 91.44 C 115.53 91.02 116.63 90.18 117.18 89.76 C 118.35 76.19 119.39 62.61 120.55 49.04 C 120.89 44.56 121.70 39.99 120.68 35.54 C 119.80 31.39 117.97 27.34 118.31 23.01 C 118.77 16.50 119.48 10.00 120.07 3.49 Z" />
</svg>
